HIERARCHY
ROOT Hips
{
	OFFSET 0.000000 0.000000 0.000000
	CHANNELS 6 Xposition Yposition Zposition Zrotation Yrotation Xrotation 
	JOINT LHipJoint
	{
		OFFSET 0.000000 0.000000 0.000000
		CHANNELS 3 Zrotation Yrotation Xrotation
		JOINT LeftUpLeg
		{
			OFFSET 1.363060 -1.794630 0.839290
			CHANNELS 3 Zrotation Yrotation Xrotation
			JOINT LeftLeg
			{
				OFFSET 2.448110 -6.726130 0.000000
				CHANNELS 3 Zrotation Yrotation Xrotation
				JOINT LeftFoot
				{
					OFFSET 2.562200 -7.039590 0.000000
					CHANNELS 3 Zrotation Yrotation Xrotation
					JOINT LeftToeBase
					{
						OFFSET 0.157640 -0.433110 2.322550
						CHANNELS 3 Zrotation Yrotation Xrotation
						End Site
						{
							OFFSET 0.000000 0.000000 0.000000
						}
					}
				}
			}
		}
	}
	JOINT RHipJoint
	{
		OFFSET 0.000000 0.000000 0.000000
		CHANNELS 3 Zrotation Yrotation Xrotation
		JOINT RightUpLeg
		{
			OFFSET -1.305520 -1.794630 0.839290
			CHANNELS 3 Zrotation Yrotation Xrotation
			JOINT RightLeg
			{
				OFFSET -2.542530 -6.985550 0.000000
				CHANNELS 3 Zrotation Yrotation Xrotation
				JOINT RightFoot
				{
					OFFSET -2.568260 -7.056230 0.000000
					CHANNELS 3 Zrotation Yrotation Xrotation
					JOINT RightToeBase
					{
						OFFSET -0.164730 -0.452590 2.363150
						CHANNELS 3 Zrotation Yrotation Xrotation
						End Site
						{
							OFFSET 0.000000 0.000000 0.000000
						}
					}
				}
			}
		}
	}
}
MOTION
Frames: 25
Frame Time: 0.008333
27.030493 16.207257 2.365233 155.666364 -86.400030 -142.969689 -9.124823 -0.046132 2.777453 -14.750838 -0.501835 -49.627415 -1.434204 1.834676 43.880396 1.511330 6.005556 -11.096694 -0.307000 -0.000000 -13.557700 10.694260 -4.988492 0.814748 3.761820 -5.125136 4.164304 1.773102 -1.997424 27.306042 0.484116 6.408301 -3.754128 0.291700 0.000000 -74.592799
26.889151 16.201502 2.383562 153.904854 -86.184276 -141.568354 -9.054693 0.051055 2.597826 -15.285822 -0.045935 -48.851754 -1.476495 1.845221 44.531211 1.533982 5.935516 -12.146472 -0.467400 -0.000001 -13.412300 10.981587 -5.068914 0.690001 2.749314 -5.940962 3.017004 1.511350 -2.308719 30.327549 0.542082 7.180449 -1.660153 0.553500 -0.000001 -77.857400
26.751305 16.195163 2.402465 152.187931 -85.937499 -140.195219 -8.976178 0.157429 2.424531 -15.834121 0.388919 -48.068070 -1.521131 1.852524 45.103897 1.565139 5.908991 -13.160808 -0.624000 0.000000 -13.366200 11.280225 -5.117540 0.567653 1.703402 -6.755230 1.733200 1.221304 -2.601245 33.480334 0.561725 7.948519 0.597018 0.908400 -0.000000 -80.341999
26.616844 16.188048 2.421794 150.531054 -85.667530 -138.858517 -8.889813 0.270471 2.260221 -16.390339 0.790581 -47.294002 -1.565311 1.858150 45.610912 1.604131 5.927345 -14.121685 -0.776700 0.000000 -13.394900 11.583060 -5.128455 0.451597 0.657782 -7.526375 0.335913 0.911855 -2.869703 36.728759 0.536670 8.652087 2.953324 1.347400 -0.000000 -81.823201
26.485920 16.180099 2.440854 148.787853 -85.382385 -137.410123 -8.784528 0.390850 2.107232 -16.968564 1.134233 -46.527966 -1.607510 1.860856 46.052337 1.651482 5.997326 -15.015557 -0.926100 -0.000000 -13.465000 11.897819 -5.096749 0.341050 -0.386405 -8.244944 -1.156671 0.594094 -3.113061 40.043908 0.467435 9.244481 5.321778 1.845199 0.000000 -82.175700
26.358682 16.171421 2.460054 147.128326 -85.087957 -136.018409 -8.673318 0.514016 1.966342 -17.543226 1.427910 -45.784178 -1.646483 1.863911 46.445150 1.704086 6.103041 -15.844634 -1.072700 -0.000000 -13.543500 12.202924 -5.022341 0.237115 -1.376592 -8.872285 -2.712215 0.280549 -3.332126 43.386904 0.358895 9.642878 7.592941 2.348600 -0.000000 -81.385600
26.235172 16.162369 2.479300 145.547374 -84.791115 -134.684003 -8.558135 0.638048 1.837080 -18.108034 1.669827 -45.056409 -1.682202 1.867493 46.792531 1.760261 6.235879 -16.613096 -1.216800 0.000000 -13.598600 12.493243 -4.907870 0.136724 -2.296503 -9.405266 -4.307550 -0.019797 -3.532080 46.729109 0.220849 9.782532 9.654089 2.791400 -0.000000 -79.604700
26.114997 16.153356 2.498179 143.964591 -84.494568 -133.332179 -8.433700 0.763838 1.719083 -18.670799 1.851351 -44.326822 -1.715771 1.870195 47.085280 1.819800 6.393879 -17.325482 -1.359600 -0.000001 -13.605000 12.773581 -4.756349 0.035456 -3.155245 -9.859644 -5.928068 -0.303018 -3.720087 50.046646 0.063866 9.612102 11.404635 3.106500 -0.000000 -77.113200
25.998183 16.144988 2.517246 142.501673 -84.204112 -132.089419 -8.313193 0.887104 1.610076 -19.207814 1.991781 -43.591410 -1.748011 1.873122 47.327160 1.879590 6.558958 -17.993757 -1.500600 -0.000000 -13.549100 13.029418 -4.575910 -0.067886 -3.922224 -10.229824 -7.554100 -0.569187 -3.901895 53.311830 -0.104079 9.070329 12.764620 3.230400 0.000000 -74.242900
25.884399 16.137980 2.536531 141.148921 -83.921799 -130.951766 -8.197901 1.007137 1.508370 -19.716835 2.097834 -42.835126 -1.780428 1.875064 47.507484 1.938748 6.725259 -18.624306 -1.639600 0.000000 -13.426799 13.261130 -4.372154 -0.174806 -4.599289 -10.527460 -9.177310 -0.821931 -4.082331 56.503040 -0.278110 8.132482 13.683015 3.128000 -0.000000 -71.291600
25.773237 16.133011 2.556385 139.954795 -83.651337 -129.971064 -8.094335 1.121583 1.411808 -20.186940 2.185706 -42.051142 -1.814284 1.875362 47.619242 1.995592 6.883042 -19.223342 -1.775700 -0.000001 -13.244601 13.463879 -4.151687 -0.284746 -5.175565 -10.756985 -10.791467 -1.065426 -4.263527 59.598435 -0.456868 6.795764 14.134423 2.793400 0.000000 -68.447600
25.664222 16.130807 2.576658 138.886091 -83.390738 -129.115014 -7.999537 1.231655 1.319288 -20.624793 2.260769 -41.225765 -1.851136 1.872140 47.645219 2.050259 7.033031 -19.789745 -1.908500 -0.000000 -13.017100 13.642678 -3.917597 -0.396830 -5.663968 -10.930904 -12.395119 -1.303050 -4.446103 62.576299 -0.640872 5.098147 14.114694 2.256800 0.000000 -65.772500
25.557059 16.131998 2.597860 138.011576 -83.144775 -128.454066 -7.921848 1.334538 1.229134 -21.015738 2.343964 -40.361318 -1.891517 1.864904 47.581207 2.100695 7.165679 -20.323600 -2.035400 0.000000 -12.765700 13.790648 -3.675977 -0.507850 -6.049430 -11.048533 -13.986253 -1.535802 -4.627856 65.411613 -0.831794 3.096716 13.639825 1.572400 0.000000 -63.219500
25.451310 16.137268 2.620141 137.337146 -82.913001 -127.991697 -7.862296 1.430305 1.140672 -21.358979 2.445337 -39.455580 -1.936175 1.852406 47.415088 2.146206 7.279673 -20.818330 -2.154499 -0.000000 -12.515300 13.907868 -3.430191 -0.614861 -6.335071 -11.114732 -15.564491 -1.762466 -4.805620 68.076065 -1.030409 0.882855 12.746030 0.816300 -0.000000 -60.682900
25.346270 16.146900 2.643259 136.826128 -82.694603 -127.689202 -7.815881 1.520646 1.053655 -21.662764 2.568637 -38.505503 -1.985546 1.833143 47.135602 2.186653 7.376336 -21.265033 -2.263800 0.000000 -12.287800 14.000116 -3.182507 -0.714781 -6.534984 -11.137961 -17.128878 -1.979835 -4.976854 70.542505 -1.235019 -1.428267 11.484066 0.073000 0.000000 -58.026900
25.241858 16.161282 2.667454 136.510412 -82.492920 -127.575199 -7.786693 1.604365 0.968123 -21.918124 2.725020 -37.519953 -2.039313 1.806727 46.741422 2.220257 7.449728 -21.655914 -2.359700 0.000000 -12.104300 14.063717 -2.937749 -0.803132 -6.642784 -11.115624 -18.677721 -2.182999 -5.136975 72.780973 -1.441414 -3.718356 9.924738 -0.582100 -0.000000 -55.146000
25.137746 16.180610 2.692500 136.355071 -82.304415 -127.613553 -7.770662 1.682778 0.883248 -22.132383 2.914028 -36.496123 -2.097810 1.772311 46.221844 2.246673 7.501427 -21.980087 -2.440100 0.000000 -11.978000 14.102424 -2.697232 -0.878146 -6.673839 -11.051226 -20.205305 -2.366586 -5.282849 74.763927 -1.641492 -5.862001 8.150225 -1.089301 -0.000000 -51.949200
25.033540 16.204932 2.718395 136.365530 -82.131853 -127.805448 -7.768518 1.755594 0.799638 -22.301052 3.138490 -35.441218 -2.160447 1.729568 45.578359 2.264453 7.526270 -22.231131 -2.501800 0.000000 -11.915100 14.115630 -2.465116 -0.936207 -6.628380 -10.942385 -21.707276 -2.524835 -5.410844 76.468479 -1.824708 -7.750195 6.248702 -1.416900 0.000000 -48.422000
24.929227 16.234162 2.744964 136.531081 -81.975106 -128.137061 -7.779244 1.822942 0.717269 -22.423857 3.396704 -34.358128 -2.226895 1.678241 44.810492 2.272758 7.521683 -22.404191 -2.542900 0.000001 -11.914299 14.104210 -2.243898 -0.975628 -6.513044 -10.788038 -23.176351 -2.652535 -5.518123 77.876098 -1.979172 -9.293362 4.308229 -1.561600 0.000000 -44.598600
24.824581 16.268175 2.771994 136.827900 -81.832737 -128.586838 -7.800541 1.885049 0.635276 -22.503113 3.684186 -33.242091 -2.296980 1.617984 43.914618 2.271225 7.487232 -22.496064 -2.562400 0.000000 -11.966600 14.070261 -2.034813 -0.996666 -6.338536 -10.588083 -24.600175 -2.745472 -5.602871 78.972840 -2.093596 -10.428417 2.412159 -1.545600 0.000000 -40.586400
24.719209 16.306680 2.799355 137.258981 -81.705241 -129.153753 -7.832654 1.941666 0.553831 -22.535795 3.997409 -32.093636 -2.370039 1.548647 42.893690 2.259460 7.421079 -22.507621 -2.559700 -0.000000 -12.060000 14.013817 -1.839890 -0.998785 -6.107617 -10.339917 -25.969245 -2.800511 -5.663248 79.750339 -2.159687 -11.125969 0.635409 -1.410100 0.000000 -36.566700
24.613192 16.349377 2.826940 137.819068 -81.591799 -129.836953 -7.875377 1.992139 0.471894 -22.520635 4.331720 -30.907067 -2.445482 1.470119 41.747695 2.237598 7.324208 -22.441246 -2.535700 -0.000000 -12.180500 13.935450 -1.659611 -0.983478 -5.825682 -10.041538 -27.269954 -2.816235 -5.698288 80.204508 -2.173125 -11.386980 -0.958432 -1.204401 -0.000000 -32.770900
24.506491 16.395813 2.854767 138.526688 -81.493415 -130.652490 -7.930774 2.035597 0.390547 -22.452060 4.682019 -29.686307 -2.522032 1.382533 40.484390 2.206086 7.198150 -22.302526 -2.492000 -0.000000 -12.316000 13.833918 -1.495040 -0.950597 -5.489209 -9.689115 -28.496131 -2.792836 -5.706855 80.337763 -2.134505 -11.242440 -2.322136 -0.975300 0.000000 -29.453400
24.398471 16.445565 2.882851 139.389310 -81.408502 -131.609929 -7.999380 2.071836 0.309610 -22.329023 5.043348 -28.426250 -2.598533 1.285890 39.105755 2.165922 7.048245 -22.095411 -2.430900 -0.000001 -12.459400 13.709569 -1.345773 -0.902032 -5.101497 -9.281890 -29.636799 -2.732090 -5.688998 80.155879 -2.048619 -10.744725 -3.431090 -0.758200 -0.000001 -26.826099
24.289335 16.498126 2.911275 140.429276 -81.336204 -132.730558 -8.083483 2.100438 0.230252 -22.147707 5.410733 -27.130967 -2.673312 1.180635 37.620026 2.118300 6.880638 -21.825147 -2.355201 0.000000 -12.609299 13.561174 -1.211158 -0.839030 -4.658809 -8.819045 -30.688416 -2.636820 -5.644755 79.669661 -1.924339 -9.965874 -4.287581 -0.573500 -0.000000 -25.009500
